<?xml version="1.0" encoding="UTF-8" standalone="no"?>
<!-- Created with Inkscape (http://www.inkscape.org/) -->

<svg
   width="623.43982mm"
   height="257.12241mm"
   viewBox="0 0 623.43981 257.12242"
   version="1.1"
   id="svg5"
   xml:space="preserve"
   sodipodi:docname="dekokreacja_LOGO_inkscape_svg.svg"
   inkscape:version="1.2 (dc2aedaf03, 2022-05-15)"
   xmlns:inkscape="http://www.inkscape.org/namespaces/inkscape"
   xmlns:sodipodi="http://sodipodi.sourceforge.net/DTD/sodipodi-0.dtd"
   xmlns="http://www.w3.org/2000/svg"
   xmlns:svg="http://www.w3.org/2000/svg"><sodipodi:namedview
     id="namedview7"
     pagecolor="#ffffff"
     bordercolor="#000000"
     borderopacity="0.25"
     inkscape:showpageshadow="2"
     inkscape:pageopacity="0.0"
     inkscape:pagecheckerboard="0"
     inkscape:deskcolor="#d1d1d1"
     inkscape:document-units="mm"
     showgrid="false"
     inkscape:zoom="0.25"
     inkscape:cx="2580"
     inkscape:cy="1882"
     inkscape:window-width="2400"
     inkscape:window-height="1271"
     inkscape:window-x="2391"
     inkscape:window-y="101"
     inkscape:window-maximized="1"
     inkscape:current-layer="layer1"
     showguides="false" /><defs
     id="defs2" /><g
     inkscape:label="Warstwa 1"
     inkscape:groupmode="layer"
     id="layer1"
     transform="translate(364.69516,265.52205)"><g
       id="g958"
       transform="translate(6.3500004,-619.12499)"><g
         id="g785"
         transform="matrix(1.3413405,0,0,1.3413405,-336.76278,402.63097)"><path
           style="fill:#d0b340;stroke-width:0.264583"
           d="M 62.79932,132.25266 V 109.3662 h 2.77812 2.77813 v 20.10833 20.10834 H 207.39411 346.43265 V 129.47453 109.3662 h 2.77813 2.77812 v 22.88646 22.88646 H 207.39411 62.79932 Z M 63.59307,-13.59891 V -36.551515 H 208.32015 353.04724 V -13.59891 9.353695 h -2.91042 -2.91042 V -10.754639 -30.862973 H 208.18786 69.14932 v 20.108334 20.108334 h -2.77813 -2.77812 z"
           id="path416" /><g
           id="g753"
           transform="translate(491.14966,-214.84167)"
           style="fill:#ffffff"><g
             aria-label="DEKOKREACJA"
             id="text662"
             style="font-size:68.43px;font-family:'Playfair Display';-inkscape-font-specification:'Playfair Display';stroke-width:0.712811"><path
               d="m -498.01437,234.88445 q 12.24897,0 18.20238,6.1587 5.95341,6.09027 5.95341,17.51808 0,7.45887 -2.94249,13.07013 -2.87406,5.54283 -8.41689,8.62218 -5.54283,3.07935 -13.41228,3.07935 -1.02645,0 -2.7372,-0.0684 -1.71075,-0.0684 -3.55836,-0.0684 -1.77918,-0.0684 -3.28464,-0.0684 -2.39505,0 -4.72167,0.0684 -2.32662,0 -3.76365,0.13686 v -1.3686 q 2.32662,-0.13686 3.48993,-0.54744 1.23174,-0.41058 1.64232,-1.64232 0.41058,-1.23174 0.41058,-3.69522 v -33.94128 q 0,-2.53191 -0.41058,-3.69522 -0.41058,-1.23174 -1.64232,-1.64232 -1.16331,-0.47901 -3.48993,-0.54744 v -1.3686 q 1.43703,0.0684 3.76365,0.20529 2.32662,0.0684 4.58481,0 2.39505,-0.0684 5.40597,-0.13686 3.01092,-0.0684 4.92696,-0.0684 z m -1.71075,1.23174 q -3.14778,0 -4.1058,1.16331 -0.95802,1.16331 -0.95802,4.72167 v 34.215 q 0,3.55836 0.95802,4.72167 1.02645,1.16331 4.17423,1.16331 7.45887,0 11.56467,-2.66877 4.1058,-2.7372 5.74812,-7.93788 1.64232,-5.20068 1.64232,-12.65955 0,-7.66416 -1.84761,-12.65955 -1.77918,-5.06382 -5.95341,-7.5273 -4.1058,-2.53191 -11.22252,-2.53191 z"
               id="path996" /><path
               d="m -433.69026,234.88445 q -0.27372,2.39505 -0.41058,4.65324 -0.0684,2.25819 -0.0684,3.4215 0,1.23174 0.0684,2.39505 0.0684,1.09488 0.13686,1.84761 h -1.57389 q -0.41058,-4.03737 -1.16331,-6.36399 -0.75273,-2.39505 -2.60034,-3.35307 -1.77918,-1.02645 -5.40597,-1.02645 h -5.67969 q -2.32662,0 -3.55836,0.41058 -1.16331,0.34215 -1.57389,1.57389 -0.41058,1.16331 -0.41058,3.69522 v 33.94128 q 0,2.46348 0.41058,3.69522 0.41058,1.23174 1.57389,1.64232 1.23174,0.34215 3.55836,0.34215 h 4.99539 q 4.31109,0 6.50085,-1.16331 2.25819,-1.16331 3.21621,-3.76365 1.02645,-2.66877 1.50546,-7.18515 h 1.57389 q -0.20529,1.84761 -0.20529,4.92696 0,1.30017 0.0684,3.76365 0.13686,2.39505 0.41058,4.99539 -3.48993,-0.13686 -7.86945,-0.13686 -4.37952,-0.0684 -7.80102,-0.0684 -1.50546,0 -3.90051,0 -2.32662,0 -5.06382,0.0684 -2.7372,0 -5.54283,0.0684 -2.80563,0 -5.33754,0.0684 v -1.3686 q 2.32662,-0.13686 3.48993,-0.54744 1.23174,-0.41058 1.64232,-1.64232 0.41058,-1.23174 0.41058,-3.69522 v -33.94128 q 0,-2.53191 -0.41058,-3.69522 -0.41058,-1.23174 -1.64232,-1.64232 -1.16331,-0.47901 -3.48993,-0.54744 v -1.3686 q 2.53191,0.0684 5.33754,0.13686 2.80563,0 5.54283,0.0684 2.7372,0 5.06382,0 2.39505,0 3.90051,0 3.14778,0 7.11672,0 4.03737,-0.0684 7.18515,-0.20529 z m -11.76996,23.40306 q 0,0 0,0.6843 0,0.6843 0,0.6843 h -12.52269 q 0,0 0,-0.6843 0,-0.6843 0,-0.6843 z m 1.98447,-9.03276 q -0.27372,3.90051 -0.27372,5.95341 0.0684,2.0529 0.0684,3.76365 0,1.71075 0.0684,3.76365 0.0684,2.0529 0.34215,5.95341 h -1.57389 q -0.27372,-2.18976 -0.6843,-4.24266 -0.34215,-2.12133 -1.64232,-3.4215 -1.23174,-1.3686 -4.24266,-1.3686 v -1.3686 q 2.25819,0 3.4215,-0.88959 1.23174,-0.95802 1.77918,-2.39505 0.54744,-1.43703 0.75273,-2.94249 0.20529,-1.57389 0.41058,-2.80563 z"
               id="path998" /><path
               d="m -386.95261,234.88445 v 1.3686 q -2.12133,0.27372 -4.1058,1.3686 -1.98447,1.09488 -3.96894,3.62679 l -13.20699,16.90221 1.50546,-3.35307 16.4232,22.99248 q 1.16331,1.71075 2.53191,2.66877 1.3686,0.95802 3.48993,1.50546 v 1.3686 q -1.64232,-0.13686 -4.1058,-0.13686 -2.39505,-0.0684 -4.1058,-0.0684 -1.16331,0 -2.87406,0.0684 -1.64232,0 -4.17423,0.13686 v -1.3686 q 2.32662,-0.13686 2.94249,-0.82116 0.61587,-0.6843 -0.47901,-2.25819 l -9.99078,-15.0546 q -1.3686,-2.12133 -2.46348,-3.14778 -1.02645,-1.09488 -2.18976,-1.43703 -1.09488,-0.34215 -2.80563,-0.41058 v -1.3686 q 2.87406,-0.0684 4.7901,-1.09488 1.98447,-1.09488 3.28464,-2.7372 l 6.56928,-8.34846 q 2.25819,-2.87406 3.07935,-4.85853 0.82116,-1.98447 -0.0684,-3.01092 -0.88959,-1.09488 -3.76365,-1.16331 v -1.3686 q 1.30017,0.0684 2.66877,0.13686 1.3686,0 2.66877,0.0684 1.3686,0 2.53191,0 1.77918,0 3.28464,-0.0684 1.50546,-0.0684 2.53191,-0.13686 z m -21.76074,0 v 1.3686 q -2.32662,0.0684 -3.55836,0.54744 -1.16331,0.41058 -1.57389,1.64232 -0.41058,1.16331 -0.41058,3.69522 v 33.94128 q 0,2.46348 0.41058,3.69522 0.41058,1.23174 1.57389,1.64232 1.23174,0.41058 3.55836,0.54744 v 1.3686 q -1.57389,-0.13686 -3.96894,-0.13686 -2.32662,-0.0684 -4.72167,-0.0684 -2.66877,0 -4.99539,0.0684 -2.32662,0 -3.76365,0.13686 v -1.3686 q 2.32662,-0.13686 3.48993,-0.54744 1.23174,-0.41058 1.64232,-1.64232 0.41058,-1.23174 0.41058,-3.69522 v -33.94128 q 0,-2.53191 -0.41058,-3.69522 -0.41058,-1.23174 -1.64232,-1.64232 -1.16331,-0.47901 -3.48993,-0.54744 v -1.3686 q 1.43703,0.0684 3.76365,0.13686 2.32662,0.0684 4.99539,0.0684 2.39505,0 4.72167,-0.0684 2.39505,-0.0684 3.96894,-0.13686 z"
               id="path1000" /><path
               d="m -362.24928,233.92643 q 6.50085,0 11.35938,2.94249 4.92696,2.94249 7.59573,8.48532 2.7372,5.4744 2.7372,13.34385 0,7.66416 -2.80563,13.41228 -2.7372,5.74812 -7.66416,8.96433 -4.92696,3.21621 -11.29095,3.21621 -6.50085,0 -11.42781,-2.94249 -4.85853,-2.94249 -7.59573,-8.48532 -2.66877,-5.54283 -2.66877,-13.34385 0,-7.66416 2.80563,-13.41228 2.80563,-5.74812 7.66416,-8.96433 4.92696,-3.21621 11.29095,-3.21621 z m -0.27372,1.23174 q -4.44795,0 -7.73259,3.07935 -3.28464,3.07935 -5.13225,8.48532 -1.77918,5.40597 -1.77918,12.52269 0,7.25358 1.98447,12.65955 2.0529,5.33754 5.4744,8.28003 3.48993,2.87406 7.66416,2.87406 4.44795,0 7.73259,-3.07935 3.28464,-3.07935 5.06382,-8.48532 1.84761,-5.4744 1.84761,-12.52269 0,-7.32201 -2.0529,-12.65955 -1.98447,-5.33754 -5.40597,-8.2116 -3.4215,-2.94249 -7.66416,-2.94249 z"
               id="path1002" /><path
               d="m -295.3932,234.88445 v 1.3686 q -2.12133,0.27372 -4.1058,1.3686 -1.98447,1.09488 -3.96894,3.62679 l -13.20699,16.90221 1.50546,-3.35307 16.4232,22.99248 q 1.16331,1.71075 2.53191,2.66877 1.3686,0.95802 3.48993,1.50546 v 1.3686 q -1.64232,-0.13686 -4.1058,-0.13686 -2.39505,-0.0684 -4.1058,-0.0684 -1.16331,0 -2.87406,0.0684 -1.64232,0 -4.17423,0.13686 v -1.3686 q 2.32662,-0.13686 2.94249,-0.82116 0.61587,-0.6843 -0.47901,-2.25819 l -9.99078,-15.0546 q -1.3686,-2.12133 -2.46348,-3.14778 -1.02645,-1.09488 -2.18976,-1.43703 -1.09488,-0.34215 -2.80563,-0.41058 v -1.3686 q 2.87406,-0.0684 4.7901,-1.09488 1.98447,-1.09488 3.28464,-2.7372 l 6.56928,-8.34846 q 2.25819,-2.87406 3.07935,-4.85853 0.82116,-1.98447 -0.0684,-3.01092 -0.88959,-1.09488 -3.76365,-1.16331 v -1.3686 q 1.30017,0.0684 2.66877,0.13686 1.3686,0 2.66877,0.0684 1.3686,0 2.53191,0 1.77918,0 3.28464,-0.0684 1.50546,-0.0684 2.53191,-0.13686 z m -21.76074,0 v 1.3686 q -2.32662,0.0684 -3.55836,0.54744 -1.16331,0.41058 -1.57389,1.64232 -0.41058,1.16331 -0.41058,3.69522 v 33.94128 q 0,2.46348 0.41058,3.69522 0.41058,1.23174 1.57389,1.64232 1.23174,0.41058 3.55836,0.54744 v 1.3686 q -1.57389,-0.13686 -3.96894,-0.13686 -2.32662,-0.0684 -4.72167,-0.0684 -2.66877,0 -4.99539,0.0684 -2.32662,0 -3.76365,0.13686 v -1.3686 q 2.32662,-0.13686 3.48993,-0.54744 1.23174,-0.41058 1.64232,-1.64232 0.41058,-1.23174 0.41058,-3.69522 v -33.94128 q 0,-2.53191 -0.41058,-3.69522 -0.41058,-1.23174 -1.64232,-1.64232 -1.16331,-0.47901 -3.48993,-0.54744 v -1.3686 q 1.43703,0.0684 3.76365,0.13686 2.32662,0.0684 4.99539,0.0684 2.39505,0 4.72167,-0.0684 2.39505,-0.0684 3.96894,-0.13686 z"
               id="path1004" /><path
               d="m -289.78188,234.88445 q 1.43703,0.0684 3.76365,0.13686 2.32662,0.0684 4.58481,0.0684 3.21621,0 6.1587,-0.0684 2.94249,-0.0684 4.17423,-0.0684 5.54283,0 9.16962,1.57389 3.69522,1.57389 5.4744,4.31109 1.84761,2.66877 1.84761,6.02184 0,2.0529 -0.82116,4.37952 -0.82116,2.32662 -2.87406,4.37952 -1.98447,2.0529 -5.4744,3.4215 -3.48993,1.30017 -8.82747,1.30017 h -6.56928 v -1.3686 h 5.88498 q 4.85853,0 7.39044,-1.50546 2.60034,-1.57389 3.48993,-4.1058 0.95802,-2.60034 0.95802,-5.74812 0,-5.40597 -2.60034,-8.34846 -2.53191,-3.01092 -8.75904,-3.01092 -3.14778,0 -4.1058,1.16331 -0.95802,1.16331 -0.95802,4.72167 v 33.94128 q 0,2.46348 0.41058,3.69522 0.41058,1.23174 1.57389,1.64232 1.23174,0.41058 3.55836,0.54744 v 1.3686 q -1.57389,-0.13686 -3.96894,-0.13686 -2.32662,-0.0684 -4.72167,-0.0684 -2.66877,0 -4.99539,0.0684 -2.32662,0 -3.76365,0.13686 v -1.3686 q 2.32662,-0.13686 3.48993,-0.54744 1.23174,-0.41058 1.64232,-1.64232 0.41058,-1.23174 0.41058,-3.69522 v -33.94128 q 0,-2.53191 -0.41058,-3.69522 -0.41058,-1.23174 -1.64232,-1.64232 -1.16331,-0.47901 -3.48993,-0.54744 z m 10.88037,24.29265 q 3.69522,0.13686 5.81655,0.34215 2.12133,0.13686 3.4215,0.27372 1.3686,0.13686 2.60034,0.34215 4.58481,0.75273 6.56928,2.80563 2.0529,1.98447 3.01092,6.22713 l 1.71075,6.97986 q 0.6843,3.01092 1.3686,4.37952 0.75273,1.30017 2.25819,1.23174 1.16331,-0.0684 1.91604,-0.75273 0.82116,-0.6843 1.71075,-1.84761 l 1.02645,0.75273 q -1.43703,2.12133 -3.01092,3.28464 -1.50546,1.09488 -4.31109,1.09488 -2.53191,0 -4.44795,-1.50546 -1.91604,-1.50546 -2.87406,-5.88498 l -1.50546,-6.843 q -0.61587,-2.94249 -1.43703,-5.06382 -0.75273,-2.18976 -2.18976,-3.4215 -1.3686,-1.23174 -4.1058,-1.23174 h -7.39044 z"
               id="path1006" /><path
               d="m -211.29263,234.88445 q -0.27372,2.39505 -0.41058,4.65324 -0.0684,2.25819 -0.0684,3.4215 0,1.23174 0.0684,2.39505 0.0684,1.09488 0.13686,1.84761 h -1.57389 q -0.41058,-4.03737 -1.16331,-6.36399 -0.75273,-2.39505 -2.60034,-3.35307 -1.77918,-1.02645 -5.40597,-1.02645 h -5.67969 q -2.32662,0 -3.55836,0.41058 -1.16331,0.34215 -1.57389,1.57389 -0.41058,1.16331 -0.41058,3.69522 v 33.94128 q 0,2.46348 0.41058,3.69522 0.41058,1.23174 1.57389,1.64232 1.23174,0.34215 3.55836,0.34215 h 4.99539 q 4.31109,0 6.50085,-1.16331 2.25819,-1.16331 3.21621,-3.76365 1.02645,-2.66877 1.50546,-7.18515 h 1.57389 q -0.20529,1.84761 -0.20529,4.92696 0,1.30017 0.0684,3.76365 0.13686,2.39505 0.41058,4.99539 -3.48993,-0.13686 -7.86945,-0.13686 -4.37952,-0.0684 -7.80102,-0.0684 -1.50546,0 -3.90051,0 -2.32662,0 -5.06382,0.0684 -2.7372,0 -5.54283,0.0684 -2.80563,0 -5.33754,0.0684 v -1.3686 q 2.32662,-0.13686 3.48993,-0.54744 1.23174,-0.41058 1.64232,-1.64232 0.41058,-1.23174 0.41058,-3.69522 v -33.94128 q 0,-2.53191 -0.41058,-3.69522 -0.41058,-1.23174 -1.64232,-1.64232 -1.16331,-0.47901 -3.48993,-0.54744 v -1.3686 q 2.53191,0.0684 5.33754,0.13686 2.80563,0 5.54283,0.0684 2.7372,0 5.06382,0 2.39505,0 3.90051,0 3.14778,0 7.11672,0 4.03737,-0.0684 7.18515,-0.20529 z m -11.76996,23.40306 q 0,0 0,0.6843 0,0.6843 0,0.6843 h -12.52269 q 0,0 0,-0.6843 0,-0.6843 0,-0.6843 z m 1.98447,-9.03276 q -0.27372,3.90051 -0.27372,5.95341 0.0684,2.0529 0.0684,3.76365 0,1.71075 0.0684,3.76365 0.0684,2.0529 0.34215,5.95341 h -1.57389 q -0.27372,-2.18976 -0.6843,-4.24266 -0.34215,-2.12133 -1.64232,-3.4215 -1.23174,-1.3686 -4.24266,-1.3686 v -1.3686 q 2.25819,0 3.4215,-0.88959 1.23174,-0.95802 1.77918,-2.39505 0.54744,-1.43703 0.75273,-2.94249 0.20529,-1.57389 0.41058,-2.80563 z"
               id="path1008" /><path
               d="m -184.53654,234.5423 16.69692,43.04247 q 1.02645,2.60034 2.32662,3.48993 1.30017,0.82116 2.39505,0.88959 v 1.3686 q -1.3686,-0.13686 -3.35307,-0.13686 -1.98447,-0.0684 -3.96894,-0.0684 -2.66877,0 -4.99539,0.0684 -2.32662,0 -3.76365,0.13686 v -1.3686 q 3.48993,-0.13686 4.44795,-1.16331 0.95802,-1.09488 -0.41058,-4.58481 l -12.72798,-34.00971 1.09488,-0.88959 -11.90682,30.93036 q -1.09488,2.7372 -1.30017,4.65324 -0.20529,1.84761 0.34215,2.94249 0.61587,1.09488 1.98447,1.57389 1.43703,0.47901 3.55836,0.54744 v 1.3686 q -1.91604,-0.13686 -4.03737,-0.13686 -2.0529,-0.0684 -3.83208,-0.0684 -1.71075,0 -2.94249,0.0684 -1.16331,0 -2.18976,0.13686 v -1.3686 q 1.3686,-0.34215 2.80563,-1.57389 1.43703,-1.30017 2.60034,-4.37952 l 16.08105,-41.46858 q 0.27372,0 0.54744,0 0.27372,0 0.54744,0 z m 8.34846,29.08275 v 1.3686 h -20.39214 l 0.6843,-1.3686 z"
               id="path1010" /><path
               d="m -138.82536,233.92643 q 4.51638,0 7.39044,1.3686 2.94249,1.30017 5.20068,3.07935 1.3686,1.02645 2.0529,0.27372 0.75273,-0.82116 1.02645,-3.76365 h 1.57389 q -0.13686,2.53191 -0.20529,6.1587 -0.0684,3.62679 -0.0684,9.5802 h -1.57389 q -0.47901,-2.94249 -0.88959,-4.65324 -0.41058,-1.77918 -1.02645,-3.01092 -0.54744,-1.23174 -1.50546,-2.46348 -2.12133,-2.80563 -5.33754,-4.03737 -3.21621,-1.30017 -6.77457,-1.30017 -3.35307,0 -6.09027,1.71075 -2.66877,1.64232 -4.65324,4.7901 -1.91604,3.14778 -3.01092,7.59573 -1.02645,4.44795 -1.02645,9.99078 0,5.74812 1.16331,10.19607 1.16331,4.37952 3.21621,7.39044 2.12133,3.01092 4.92696,4.58481 2.87406,1.50546 6.1587,1.50546 3.07935,0 6.43242,-1.23174 3.35307,-1.23174 5.26911,-3.96894 1.50546,-1.98447 2.0529,-4.31109 0.61587,-2.32662 1.09488,-6.50085 h 1.57389 q 0,6.22713 0.0684,10.05921 0.0684,3.76365 0.20529,6.36399 h -1.57389 q -0.27372,-2.94249 -0.95802,-3.69522 -0.61587,-0.75273 -2.12133,0.20529 -2.53191,1.77918 -5.40597,3.14778 -2.80563,1.30017 -7.25358,1.30017 -6.50085,0 -11.42781,-2.94249 -4.85853,-2.94249 -7.59573,-8.48532 -2.66877,-5.54283 -2.66877,-13.34385 0,-7.66416 2.80563,-13.41228 2.80563,-5.74812 7.66416,-8.96433 4.92696,-3.21621 11.29095,-3.21621 z"
               id="path1012" /><path
               d="m -118.50169,296.19773 v -1.30017 q 3.07935,-0.0684 5.13225,-1.50546 2.12133,-1.43703 3.14778,-4.7901 1.09488,-3.28464 1.09488,-8.82747 v -37.6365 q 0,-2.53191 -0.41058,-3.69522 -0.41058,-1.23174 -1.64232,-1.64232 -1.16331,-0.47901 -3.48993,-0.54744 v -1.3686 q 1.43703,0.0684 3.76365,0.13686 2.32662,0.0684 4.85853,0.0684 2.53191,0 4.85853,-0.0684 2.395053,-0.0684 3.968943,-0.13686 v 1.3686 q -2.32662,0.0684 -3.558363,0.54744 -1.16331,0.41058 -1.57389,1.64232 -0.41058,1.16331 -0.41058,3.69522 v 25.04538 q 0,2.80563 -0.0684,6.09027 -0.0684,3.28464 -0.34215,6.36399 -0.20529,3.07935 -0.75273,5.40597 -1.16331,4.7901 -4.92696,7.93788 -3.69522,3.21621 -9.64863,3.21621 z"
               id="path1014" /><path
               d="m -73.337906,234.5423 16.69692,43.04247 q 1.02645,2.60034 2.32662,3.48993 1.30017,0.82116 2.39505,0.88959 v 1.3686 q -1.3686,-0.13686 -3.35307,-0.13686 -1.98447,-0.0684 -3.96894,-0.0684 -2.66877,0 -4.99539,0.0684 -2.32662,0 -3.76365,0.13686 v -1.3686 q 3.48993,-0.13686 4.44795,-1.16331 0.95802,-1.09488 -0.41058,-4.58481 l -12.72798,-34.00971 1.09488,-0.88959 -11.90682,30.93036 q -1.09488,2.7372 -1.30017,4.65324 -0.20529,1.84761 0.34215,2.94249 0.61587,1.09488 1.98447,1.57389 1.43703,0.47901 3.55836,0.54744 v 1.3686 q -1.91604,-0.13686 -4.03737,-0.13686 -2.0529,-0.0684 -3.83208,-0.0684 -1.71075,0 -2.94249,0.0684 -1.16331,0 -2.18976,0.13686 v -1.3686 q 1.3686,-0.34215 2.80563,-1.57389 1.43703,-1.30017 2.60034,-4.37952 l 16.08105,-41.46858 q 0.27372,0 0.54744,0 0.27372,0 0.54744,0 z m 8.34846,29.08275 v 1.3686 h -20.39214 l 0.6843,-1.3686 z"
               id="path1016" /></g><g
             aria-label="KOMPLEKSOWA ARANŻACJA OKIEN"
             id="text662-4"
             style="font-size:17.0052px;line-height:0px;font-family:'Playfair Display';-inkscape-font-specification:'Playfair Display';letter-spacing:7.24958px;stroke-width:0.177138"><path
               d="m -506.96398,299.98064 v 0.34011 q -0.52716,0.068 -1.02031,0.3401 -0.49316,0.27208 -0.98631,0.90128 l -3.282,4.20028 0.37411,-0.83325 4.08125,5.71374 q 0.28909,0.42513 0.6292,0.66321 0.3401,0.23807 0.86726,0.37411 v 0.3401 q -0.40812,-0.034 -1.02031,-0.034 -0.59518,-0.017 -1.02031,-0.017 -0.28909,0 -0.71422,0.017 -0.40813,0 -1.03732,0.034 v -0.3401 q 0.57818,-0.034 0.73122,-0.20406 0.15305,-0.17005 -0.11903,-0.56117 l -2.48276,-3.74115 q -0.34011,-0.52716 -0.61219,-0.78224 -0.25508,-0.27208 -0.54416,-0.35711 -0.27209,-0.085 -0.69722,-0.10203 v -0.3401 q 0.71422,-0.017 1.19037,-0.27208 0.49315,-0.27209 0.81625,-0.68021 l 1.63249,-2.07464 q 0.56118,-0.71421 0.76524,-1.20737 0.20406,-0.49315 -0.017,-0.74822 -0.22106,-0.27209 -0.93528,-0.28909 v -0.34011 q 0.3231,0.017 0.6632,0.034 0.3401,0 0.6632,0.017 0.34011,0 0.6292,0 0.44213,0 0.81625,-0.017 0.37411,-0.017 0.62919,-0.034 z m -5.40766,0 v 0.34011 q -0.57817,0.017 -0.88427,0.13604 -0.28908,0.10203 -0.39112,0.40812 -0.10203,0.28909 -0.10203,0.91828 v 8.43458 q 0,0.61219 0.10203,0.91828 0.10204,0.3061 0.39112,0.40813 0.3061,0.10203 0.88427,0.13604 v 0.3401 q -0.39112,-0.034 -0.9863,-0.034 -0.57817,-0.017 -1.17336,-0.017 -0.6632,0 -1.24138,0.017 -0.57817,0 -0.93528,0.034 v -0.3401 q 0.57817,-0.034 0.86726,-0.13604 0.3061,-0.10203 0.40813,-0.40813 0.10203,-0.30609 0.10203,-0.91828 v -8.43458 q 0,-0.62919 -0.10203,-0.91828 -0.10203,-0.30609 -0.40813,-0.40812 -0.28909,-0.11904 -0.86726,-0.13604 v -0.34011 q 0.35711,0.017 0.93528,0.034 0.57818,0.017 1.24138,0.017 0.59519,0 1.17336,-0.017 0.59518,-0.017 0.9863,-0.034 z"
               id="path1019" /><path
               d="m -493.5755,299.74257 q 1.61549,0 2.82286,0.73122 1.22438,0.73123 1.88758,2.10865 0.68021,1.36041 0.68021,3.31601 0,1.90459 -0.69722,3.33302 -0.6802,1.42844 -1.90458,2.22768 -1.22437,0.79925 -2.80586,0.79925 -1.61549,0 -2.83986,-0.73123 -1.20737,-0.73122 -1.88758,-2.10864 -0.6632,-1.37742 -0.6632,-3.31601 0,-1.90459 0.69721,-3.33302 0.69721,-1.42844 1.90458,-2.22768 1.22438,-0.79925 2.80586,-0.79925 z m -0.068,0.30609 q -1.10534,0 -1.92159,0.76524 -0.81625,0.76523 -1.27539,2.10864 -0.44213,1.34341 -0.44213,3.11195 0,1.80256 0.49315,3.14597 0.51015,1.3264 1.36041,2.05763 0.86727,0.71421 1.90458,0.71421 1.10534,0 1.92159,-0.76523 0.81625,-0.76523 1.25839,-2.10864 0.45914,-1.36042 0.45914,-3.11196 0,-1.81955 -0.51016,-3.14596 -0.49315,-1.3264 -1.34341,-2.04062 -0.85026,-0.73123 -1.90458,-0.73123 z"
               id="path1021" /><path
               d="m -466.07273,299.98064 v 0.34011 q -0.57818,0.017 -0.88427,0.13604 -0.28909,0.10203 -0.39112,0.40812 -0.10203,0.28909 -0.10203,0.91828 v 8.43458 q 0,0.61219 0.10203,0.91828 0.10203,0.3061 0.39112,0.40813 0.30609,0.10203 0.88427,0.13604 v 0.3401 q -0.39112,-0.034 -0.98631,-0.034 -0.57817,-0.017 -1.17335,-0.017 -0.66321,0 -1.24138,0.017 -0.57818,0 -0.93529,0.034 v -0.3401 q 0.57818,-0.034 0.86727,-0.13604 0.30609,-0.10203 0.40812,-0.40813 0.10203,-0.30609 0.10203,-0.91828 v -9.35286 l 0.068,0.051 -4.16627,11.18942 h -0.27208 l -4.28531,-11.03637 v 8.97874 q 0,0.61219 0.10203,0.9693 0.11903,0.3401 0.44213,0.49315 0.34011,0.13604 1.00331,0.17005 v 0.3401 q -0.3061,-0.034 -0.79925,-0.034 -0.49315,-0.017 -0.93528,-0.017 -0.42513,0 -0.86727,0.017 -0.42513,0 -0.71422,0.034 v -0.3401 q 0.57818,-0.034 0.86727,-0.17005 0.30609,-0.15305 0.40812,-0.49315 0.10204,-0.35711 0.10204,-0.9693 v -8.26453 q 0,-0.62919 -0.10204,-0.91828 -0.10203,-0.30609 -0.40812,-0.40812 -0.28909,-0.11904 -0.86727,-0.13604 v -0.34011 q 0.28909,0.017 0.71422,0.034 0.44214,0.017 0.86727,0.017 0.37411,0 0.76523,-0.017 0.40813,-0.017 0.68021,-0.034 l 3.86018,10.16911 -0.28909,0.13604 3.82617,-10.25413 q 0.20406,0 0.39112,0 0.20406,0 0.40813,0 0.59518,0 1.17335,-0.017 0.59519,-0.017 0.98631,-0.034 z"
               id="path1023" /><path
               d="m -457.39471,299.98064 q 0.35711,0.017 0.93529,0.034 0.57817,0.017 1.13934,0.017 0.79925,0 1.53047,-0.017 0.73123,-0.017 1.03732,-0.017 2.05763,0 3.07794,0.93528 1.02031,0.93529 1.02031,2.41474 0,0.61219 -0.20406,1.2924 -0.20406,0.6632 -0.71422,1.24138 -0.49315,0.56117 -1.36041,0.91828 -0.86727,0.35711 -2.19368,0.35711 h -1.63249 v -0.34011 h 1.46244 q 1.20737,0 1.83656,-0.45914 0.6462,-0.45914 0.86727,-1.20737 0.23807,-0.74822 0.23807,-1.61549 0,-1.61549 -0.6462,-2.41474 -0.62919,-0.79924 -2.17666,-0.79924 -0.78224,0 -1.02031,0.28909 -0.23808,0.28908 -0.23808,1.17335 v 8.43458 q 0,0.61219 0.11904,0.91828 0.13604,0.3061 0.51016,0.40813 0.37411,0.10203 1.08833,0.13604 v 0.3401 q -0.44214,-0.034 -1.12234,-0.034 -0.68021,-0.017 -1.37742,-0.017 -0.66321,0 -1.24138,0.017 -0.57818,0 -0.93529,0.034 v -0.3401 q 0.57818,-0.034 0.86726,-0.13604 0.3061,-0.10203 0.40813,-0.40813 0.10203,-0.30609 0.10203,-0.91828 v -8.43458 q 0,-0.62919 -0.10203,-0.91828 -0.10203,-0.30609 -0.40813,-0.40812 -0.28908,-0.11904 -0.86726,-0.13604 z"
               id="path1025" /><path
               d="m -435.86078,299.98064 v 0.34011 q -0.57818,0.017 -0.88427,0.13604 -0.28909,0.10203 -0.39112,0.40812 -0.10203,0.28909 -0.10203,0.91828 v 8.43458 q 0,0.61219 0.10203,0.91828 0.10203,0.3061 0.39112,0.40813 0.30609,0.085 0.88427,0.085 h 1.24138 q 0.79924,0 1.2924,-0.17006 0.51015,-0.17005 0.79924,-0.52716 0.30609,-0.37411 0.45914,-0.9863 0.15305,-0.61219 0.23807,-1.49646 h 0.39112 q -0.051,0.52716 -0.051,1.39443 0,0.3231 0.017,0.93529 0.034,0.59518 0.10203,1.24137 -0.86726,-0.034 -1.95559,-0.034 -1.08834,-0.017 -1.9386,-0.017 -0.37411,0 -0.96929,0 -0.57818,0 -1.25839,0.017 -0.68021,0 -1.37742,0.017 -0.69721,0 -1.32641,0.017 v -0.3401 q 0.57818,-0.034 0.86727,-0.13604 0.30609,-0.10203 0.40812,-0.40813 0.10204,-0.30609 0.10204,-0.91828 v -8.43458 q 0,-0.62919 -0.10204,-0.91828 -0.10203,-0.30609 -0.40812,-0.40812 -0.28909,-0.11904 -0.86727,-0.13604 v -0.34011 q 0.35711,0.017 0.93529,0.034 0.57818,0.017 1.24138,0.017 0.59518,0 1.17336,-0.017 0.59518,-0.017 0.9863,-0.034 z"
               id="path1027" /><path
               d="m -414.46288,299.98064 q -0.068,0.59519 -0.10204,1.15636 -0.017,0.56117 -0.017,0.85026 0,0.30609 0.017,0.59518 0.017,0.27208 0.034,0.45914 h -0.39112 q -0.10204,-1.00331 -0.28909,-1.58148 -0.18706,-0.59519 -0.6462,-0.83326 -0.44214,-0.25508 -1.34341,-0.25508 h -1.41143 q -0.57818,0 -0.88427,0.10203 -0.28909,0.085 -0.39112,0.39112 -0.10203,0.28909 -0.10203,0.91828 v 8.43458 q 0,0.61219 0.10203,0.91828 0.10203,0.3061 0.39112,0.40813 0.30609,0.085 0.88427,0.085 h 1.24138 q 1.07132,0 1.61549,-0.28909 0.56117,-0.28909 0.79925,-0.93529 0.25507,-0.6632 0.37411,-1.78555 h 0.39112 q -0.051,0.45915 -0.051,1.22438 0,0.3231 0.017,0.93529 0.034,0.59518 0.10203,1.24137 -0.86727,-0.034 -1.9556,-0.034 -1.08833,-0.017 -1.93859,-0.017 -0.37412,0 -0.9693,0 -0.57817,0 -1.25838,0.017 -0.68021,0 -1.37742,0.017 -0.69722,0 -1.32641,0.017 v -0.3401 q 0.57818,-0.034 0.86727,-0.13604 0.30609,-0.10203 0.40812,-0.40813 0.10203,-0.30609 0.10203,-0.91828 v -8.43458 q 0,-0.62919 -0.10203,-0.91828 -0.10203,-0.30609 -0.40812,-0.40812 -0.28909,-0.11904 -0.86727,-0.13604 v -0.34011 q 0.62919,0.017 1.32641,0.034 0.69721,0 1.37742,0.017 0.68021,0 1.25838,0 0.59518,0 0.9693,0 0.78224,0 1.76854,0 1.00331,-0.017 1.78555,-0.051 z m -2.9249,5.81578 q 0,0 0,0.17005 0,0.17006 0,0.17006 h -3.11195 q 0,0 0,-0.17006 0,-0.17005 0,-0.17005 z m 0.49315,-2.24468 q -0.068,0.96929 -0.068,1.47945 0.017,0.51015 0.017,0.93528 0,0.42513 0.017,0.93529 0.017,0.51016 0.085,1.47945 h -0.39112 q -0.068,-0.54416 -0.17005,-1.05432 -0.085,-0.52716 -0.40813,-0.85026 -0.30609,-0.3401 -1.05432,-0.3401 v -0.34011 q 0.56117,0 0.85026,-0.22107 0.30609,-0.23807 0.44213,-0.59518 0.13605,-0.35711 0.18706,-0.73122 0.051,-0.39112 0.10203,-0.69721 z"
               id="path1029" /><path
               d="m -395.59876,299.98064 v 0.34011 q -0.52716,0.068 -1.02032,0.3401 -0.49315,0.27208 -0.9863,0.90128 l -3.282,4.20028 0.37411,-0.83325 4.08125,5.71374 q 0.28909,0.42513 0.62919,0.66321 0.34011,0.23807 0.86727,0.37411 v 0.3401 q -0.40813,-0.034 -1.02031,-0.034 -0.59518,-0.017 -1.02031,-0.017 -0.28909,0 -0.71422,0.017 -0.40813,0 -1.03732,0.034 v -0.3401 q 0.57818,-0.034 0.73122,-0.20406 0.15305,-0.17005 -0.11903,-0.56117 l -2.48276,-3.74115 q -0.34011,-0.52716 -0.61219,-0.78224 -0.25508,-0.27208 -0.54417,-0.35711 -0.27208,-0.085 -0.69721,-0.10203 v -0.3401 q 0.71422,-0.017 1.19037,-0.27208 0.49315,-0.27209 0.81624,-0.68021 l 1.6325,-2.07464 q 0.56118,-0.71421 0.76524,-1.20737 0.20406,-0.49315 -0.017,-0.74822 -0.22106,-0.27209 -0.93528,-0.28909 v -0.34011 q 0.3231,0.017 0.6632,0.034 0.3401,0 0.6632,0.017 0.34011,0 0.62919,0 0.44214,0 0.81625,-0.017 0.37412,-0.017 0.6292,-0.034 z m -5.40766,0 v 0.34011 q -0.57817,0.017 -0.88427,0.13604 -0.28909,0.10203 -0.39112,0.40812 -0.10203,0.28909 -0.10203,0.91828 v 8.43458 q 0,0.61219 0.10203,0.91828 0.10203,0.3061 0.39112,0.40813 0.3061,0.10203 0.88427,0.13604 v 0.3401 q -0.39112,-0.034 -0.9863,-0.034 -0.57818,-0.017 -1.17336,-0.017 -0.6632,0 -1.24138,0.017 -0.57817,0 -0.93528,0.034 v -0.3401 q 0.57817,-0.034 0.86726,-0.13604 0.3061,-0.10203 0.40813,-0.40813 0.10203,-0.30609 0.10203,-0.91828 v -8.43458 q 0,-0.62919 -0.10203,-0.91828 -0.10203,-0.30609 -0.40813,-0.40812 -0.28909,-0.11904 -0.86726,-0.13604 v -0.34011 q 0.35711,0.017 0.93528,0.034 0.57818,0.017 1.24138,0.017 0.59518,0 1.17336,-0.017 0.59518,-0.017 0.9863,-0.034 z"
               id="path1031" /><path
               d="m -383.31563,299.79359 q 0.85026,0 1.2924,0.20406 0.44213,0.18706 0.78223,0.42513 0.20407,0.11904 0.3231,0.18706 0.13605,0.051 0.25508,0.051 0.17005,0 0.23807,-0.18706 0.085,-0.18705 0.13605,-0.56117 h 0.39112 q -0.017,0.28909 -0.051,0.69722 -0.017,0.39112 -0.034,1.05432 0,0.6462 0,1.71752 h -0.39112 q -0.051,-0.81625 -0.35711,-1.56447 -0.30609,-0.74823 -0.90127,-1.22438 -0.57818,-0.47614 -1.53047,-0.47614 -0.90128,0 -1.49646,0.54416 -0.57818,0.54417 -0.57818,1.42844 0,0.76523 0.39112,1.29239 0.39112,0.51016 1.03732,0.93529 0.6632,0.40812 1.42844,0.88427 0.88427,0.54417 1.56447,1.08833 0.69722,0.52716 1.08834,1.17336 0.40812,0.6462 0.40812,1.56448 0,1.08833 -0.49315,1.80255 -0.49315,0.71422 -1.3094,1.07133 -0.81625,0.35711 -1.80255,0.35711 -0.90128,0 -1.42844,-0.20406 -0.52716,-0.20407 -0.90127,-0.42513 -0.37412,-0.23808 -0.57818,-0.23808 -0.17005,0 -0.25508,0.18706 -0.068,0.18706 -0.11903,0.56117 h -0.39112 q 0.034,-0.35711 0.034,-0.83325 0.017,-0.49315 0.017,-1.27539 0.017,-0.78224 0.017,-1.97261 h 0.39112 q 0.068,1.02032 0.37411,1.90459 0.3231,0.88427 0.9693,1.42843 0.6632,0.52716 1.75153,0.52716 0.56118,0 1.05433,-0.22106 0.51015,-0.23808 0.83325,-0.73123 0.3231,-0.51015 0.3231,-1.3094 0,-0.69721 -0.3401,-1.20737 -0.3231,-0.52716 -0.91829,-0.96929 -0.59518,-0.45914 -1.39442,-0.93529 -0.79925,-0.49315 -1.49646,-1.00331 -0.69721,-0.51015 -1.12234,-1.17336 -0.40813,-0.6802 -0.40813,-1.63249 0,-1.00331 0.44214,-1.64951 0.45914,-0.6632 1.19036,-0.96929 0.73123,-0.3231 1.56448,-0.3231 z"
               id="path1033" /><path
               d="m -364.92763,299.74257 q 1.6155,0 2.82287,0.73122 1.22437,0.73123 1.88757,2.10865 0.68021,1.36041 0.68021,3.31601 0,1.90459 -0.69721,3.33302 -0.68021,1.42844 -1.90459,2.22768 -1.22437,0.79925 -2.80585,0.79925 -1.6155,0 -2.83987,-0.73123 -1.20737,-0.73122 -1.88758,-2.10864 -0.6632,-1.37742 -0.6632,-3.31601 0,-1.90459 0.69721,-3.33302 0.69721,-1.42844 1.90458,-2.22768 1.22438,-0.79925 2.80586,-0.79925 z m -0.068,0.30609 q -1.10534,0 -1.92159,0.76524 -0.81625,0.76523 -1.27539,2.10864 -0.44213,1.34341 -0.44213,3.11195 0,1.80256 0.49315,3.14597 0.51016,1.3264 1.36042,2.05763 0.86726,0.71421 1.90458,0.71421 1.10534,0 1.92159,-0.76523 0.81624,-0.76523 1.25838,-2.10864 0.45914,-1.36042 0.45914,-3.11196 0,-1.81955 -0.51016,-3.14596 -0.49315,-1.3264 -1.34341,-2.04062 -0.85026,-0.73123 -1.90458,-0.73123 z"
               id="path1035" /><path
               d="m -336.14948,299.98064 v 0.34011 q -0.3231,0.068 -0.71422,0.39112 -0.39112,0.30609 -0.62919,1.08833 l -3.21398,10.30515 q -0.034,0 -0.068,0 -0.034,0 -0.068,0 -0.034,0 -0.068,0 -0.034,0 -0.068,0 l -3.6051,-10.69627 q -0.22107,-0.6632 -0.49315,-0.86726 -0.27208,-0.20407 -0.51016,-0.22107 v -0.34011 q 0.3061,0.017 0.76524,0.034 0.45914,0.017 0.88427,0.017 0.6632,0 1.24138,-0.017 0.57817,-0.017 0.93528,-0.034 v 0.34011 q -0.51015,0.017 -0.81625,0.10203 -0.28908,0.085 -0.3401,0.37411 -0.034,0.28909 0.17005,0.95229 l 2.53378,7.8394 -0.23808,0.20406 2.24469,-7.05715 q 0.30609,-0.93529 0.27208,-1.44545 -0.017,-0.52716 -0.37411,-0.73122 -0.35711,-0.22107 -1.07133,-0.23807 v -0.34011 q 0.49315,0.017 1.00331,0.034 0.51015,0.017 0.95229,0.017 0.44213,0 0.73122,-0.017 0.28909,-0.017 0.54417,-0.034 z m -11.88663,0 v 0.34011 q -0.44214,0.034 -0.6462,0.17005 -0.18706,0.13604 -0.18706,0.44213 0.017,0.28909 0.18706,0.81625 l 2.6358,8.04346 -0.42513,0.42513 2.38073,-7.60132 0.25508,0.40812 -2.80586,9.08078 q -0.034,0 -0.068,0 -0.034,0 -0.068,0 -0.034,0 -0.068,0 -0.034,0 -0.068,0 l -3.6051,-10.69627 q -0.22107,-0.6632 -0.56118,-0.86726 -0.3401,-0.20407 -0.61218,-0.22107 v -0.34011 q 0.3401,0.017 0.83325,0.034 0.51016,0.017 0.9863,0.017 0.56118,0 1.03732,-0.017 0.49315,-0.017 0.79925,-0.034 z"
               id="path1037" /><path
               d="m -324.4105,299.89562 4.14927,10.69627 q 0.25507,0.6462 0.57817,0.86726 0.3231,0.20407 0.59518,0.22107 v 0.3401 q -0.3401,-0.034 -0.83325,-0.034 -0.49315,-0.017 -0.9863,-0.017 -0.66321,0 -1.24138,0.017 -0.57818,0 -0.93529,0.034 v -0.3401 q 0.86727,-0.034 1.10534,-0.28909 0.23807,-0.27208 -0.10203,-1.13935 l -3.16297,-8.45158 0.27208,-0.22107 -2.9589,7.68635 q -0.27208,0.68021 -0.3231,1.15636 -0.051,0.45914 0.085,0.73122 0.15304,0.27208 0.49315,0.39112 0.35711,0.11904 0.88427,0.13604 v 0.3401 q -0.47615,-0.034 -1.00331,-0.034 -0.51015,-0.017 -0.95229,-0.017 -0.42513,0 -0.73122,0.017 -0.28909,0 -0.54417,0.034 v -0.3401 q 0.3401,-0.085 0.69721,-0.39112 0.35711,-0.3231 0.6462,-1.08833 l 3.99622,-10.30515 q 0.068,0 0.13604,0 0.068,0 0.13605,0 z m 2.07463,7.22721 v 0.3401 h -5.06755 l 0.17005,-0.3401 z"
               id="path1039" /><path
               d="m -295.54196,299.89562 4.14927,10.69627 q 0.25508,0.6462 0.57818,0.86726 0.3231,0.20407 0.59518,0.22107 v 0.3401 q -0.3401,-0.034 -0.83326,-0.034 -0.49315,-0.017 -0.9863,-0.017 -0.6632,0 -1.24138,0.017 -0.57817,0 -0.93528,0.034 v -0.3401 q 0.86726,-0.034 1.10534,-0.28909 0.23807,-0.27208 -0.10204,-1.13935 l -3.16296,-8.45158 0.27208,-0.22107 -2.9589,7.68635 q -0.27209,0.68021 -0.3231,1.15636 -0.051,0.45914 0.085,0.73122 0.15305,0.27208 0.49315,0.39112 0.35711,0.11904 0.88427,0.13604 v 0.3401 q -0.47614,-0.034 -1.0033,-0.034 -0.51016,-0.017 -0.95229,-0.017 -0.42513,0 -0.73123,0.017 -0.28909,0 -0.54416,0.034 v -0.3401 q 0.3401,-0.085 0.69721,-0.39112 0.35711,-0.3231 0.6462,-1.08833 l 3.99622,-10.30515 q 0.068,0 0.13604,0 0.068,0 0.13604,0 z m 2.07464,7.22721 v 0.3401 h -5.06755 l 0.17005,-0.3401 z"
               id="path1041" /><path
               d="m -282.69769,299.98064 q 0.35711,0.017 0.93528,0.034 0.57818,0.017 1.13935,0.017 0.79925,0 1.53047,-0.017 0.73122,-0.017 1.03732,-0.017 1.37742,0 2.27869,0.39112 0.91828,0.39112 1.36042,1.07133 0.45914,0.6632 0.45914,1.49645 0,0.51016 -0.20406,1.08834 -0.20406,0.57817 -0.71422,1.08833 -0.49315,0.51015 -1.36042,0.85026 -0.86726,0.3231 -2.19367,0.3231 h -1.6325 v -0.34011 h 1.46245 q 1.20737,0 1.83656,-0.37411 0.6462,-0.39112 0.86727,-1.02031 0.23807,-0.6462 0.23807,-1.42844 0,-1.34341 -0.6462,-2.07463 -0.62919,-0.74823 -2.17666,-0.74823 -0.78224,0 -1.02032,0.28909 -0.23807,0.28908 -0.23807,1.17335 v 8.43458 q 0,0.61219 0.10203,0.91828 0.10203,0.3061 0.39112,0.40813 0.3061,0.10203 0.88427,0.13604 v 0.3401 q -0.39112,-0.034 -0.9863,-0.034 -0.57818,-0.017 -1.17336,-0.017 -0.6632,0 -1.24138,0.017 -0.57817,0 -0.93528,0.034 v -0.3401 q 0.57817,-0.034 0.86726,-0.13604 0.3061,-0.10203 0.40813,-0.40813 0.10203,-0.30609 0.10203,-0.91828 v -8.43458 q 0,-0.62919 -0.10203,-0.91828 -0.10203,-0.30609 -0.40813,-0.40812 -0.28909,-0.11904 -0.86726,-0.13604 z m 2.70382,6.03685 q 0.91828,0.034 1.44545,0.085 0.52716,0.034 0.85026,0.068 0.3401,0.034 0.64619,0.085 1.13935,0.18706 1.6325,0.69722 0.51016,0.49315 0.74823,1.54747 l 0.42513,1.73453 q 0.17005,0.74823 0.34011,1.08833 0.18705,0.3231 0.56117,0.3061 0.28909,-0.017 0.47614,-0.18706 0.20407,-0.17005 0.42513,-0.45914 l 0.25508,0.18705 q -0.35711,0.52717 -0.74823,0.81625 -0.37411,0.27209 -1.07133,0.27209 -0.62919,0 -1.10533,-0.37412 -0.47615,-0.37411 -0.71422,-1.46244 l -0.37412,-1.70052 q -0.15304,-0.73123 -0.35711,-1.25839 -0.18705,-0.54417 -0.54416,-0.85026 -0.34011,-0.30609 -1.02031,-0.30609 h -1.83657 z"
               id="path1043" /><path
               d="m -259.65026,299.89562 4.14926,10.69627 q 0.25508,0.6462 0.57818,0.86726 0.3231,0.20407 0.59518,0.22107 v 0.3401 q -0.3401,-0.034 -0.83325,-0.034 -0.49315,-0.017 -0.9863,-0.017 -0.66321,0 -1.24138,0.017 -0.57818,0 -0.93529,0.034 v -0.3401 q 0.86727,-0.034 1.10534,-0.28909 0.23807,-0.27208 -0.10203,-1.13935 l -3.16297,-8.45158 0.27208,-0.22107 -2.9589,7.68635 q -0.27208,0.68021 -0.3231,1.15636 -0.051,0.45914 0.085,0.73122 0.15304,0.27208 0.49315,0.39112 0.35711,0.11904 0.88427,0.13604 v 0.3401 q -0.47615,-0.034 -1.00331,-0.034 -0.51016,-0.017 -0.95229,-0.017 -0.42513,0 -0.73122,0.017 -0.28909,0 -0.54417,0.034 v -0.3401 q 0.3401,-0.085 0.69721,-0.39112 0.35711,-0.3231 0.6462,-1.08833 l 3.99622,-10.30515 q 0.068,0 0.13604,0 0.068,0 0.13605,0 z m 2.07463,7.22721 v 0.3401 h -5.06755 l 0.17005,-0.3401 z"
               id="path1045" /><path
               d="m -236.12675,299.98064 v 0.34011 q -0.57818,0.017 -0.88427,0.17005 -0.28909,0.15305 -0.39112,0.49315 -0.10203,0.3401 -0.10203,0.9693 v 10.1521 q -0.10203,0 -0.20406,0 -0.085,0 -0.18706,0 l -7.14218,-11.03637 v 8.97874 q 0,0.61219 0.10203,0.9693 0.11903,0.3401 0.44213,0.49315 0.34011,0.13604 1.00331,0.17005 v 0.3401 q -0.30609,-0.034 -0.79925,-0.034 -0.49315,-0.017 -0.93528,-0.017 -0.42513,0 -0.86727,0.017 -0.42513,0 -0.71421,0.034 v -0.3401 q 0.57817,-0.034 0.86726,-0.17005 0.30609,-0.15305 0.40813,-0.49315 0.10203,-0.35711 0.10203,-0.9693 v -8.26453 q 0,-0.62919 -0.10203,-0.91828 -0.10204,-0.30609 -0.40813,-0.40812 -0.28909,-0.11904 -0.86726,-0.13604 v -0.34011 q 0.28908,0.017 0.71421,0.034 0.44214,0.017 0.86727,0.017 0.37411,0 0.71422,-0.017 0.3401,-0.017 0.61218,-0.034 l 6.00284,9.25083 v -7.27822 q 0,-0.6292 -0.11904,-0.9693 -0.10203,-0.3401 -0.44213,-0.49315 -0.3231,-0.15305 -0.9863,-0.17005 v -0.34011 q 0.30609,0.017 0.79924,0.034 0.51016,0.017 0.93529,0.017 0.44213,0 0.86726,-0.017 0.44214,-0.017 0.71422,-0.034 z"
               id="path1047" /><path
               d="m -218.91212,299.98064 v 0.34011 l -6.78508,11.30846 h 3.33302 q 0.79924,0 1.2924,-0.17006 0.51015,-0.17005 0.79924,-0.52716 0.30609,-0.37411 0.45914,-0.9863 0.15305,-0.61219 0.23807,-1.49646 h 0.39112 q -0.051,0.52716 -0.051,1.39443 0,0.3231 0.017,0.93529 0.034,0.59518 0.10203,1.24137 -0.62919,-0.034 -1.37742,-0.034 -0.74823,-0.017 -1.49646,-0.017 -0.73122,0 -1.36041,0 -1.00331,0 -2.12565,0.017 -1.10534,0 -2.07464,0.034 v -0.3401 l 6.83609,-11.30846 h -3.31601 q -0.79924,0 -1.3094,0.17006 -0.49315,0.17005 -0.79924,0.54416 -0.28909,0.35711 -0.44214,0.9693 -0.15305,0.61219 -0.23807,1.49646 h -0.39112 q 0.034,-0.27209 0.034,-0.6292 0.017,-0.35711 0.017,-0.76523 0,-0.3231 -0.034,-0.91828 -0.017,-0.61219 -0.085,-1.25839 0.62919,0.017 1.37742,0.034 0.74823,0.017 1.49646,0.017 0.74822,0 1.36041,0 0.9693,0 2.07464,0 1.12234,-0.017 2.05763,-0.051 z m -4.33633,-4.2683 q 0.44213,0 0.76523,0.3231 0.3231,0.3231 0.3231,0.76523 0,0.44214 -0.3231,0.76524 -0.3231,0.32309 -0.76523,0.32309 -0.44214,0 -0.76523,-0.32309 -0.3231,-0.3231 -0.3231,-0.76524 0,-0.44213 0.3231,-0.76523 0.32309,-0.3231 0.76523,-0.3231 z"
               id="path1049" /><path
               d="m -205.42163,299.89562 4.14927,10.69627 q 0.25508,0.6462 0.57818,0.86726 0.3231,0.20407 0.59518,0.22107 v 0.3401 q -0.3401,-0.034 -0.83325,-0.034 -0.49316,-0.017 -0.98631,-0.017 -0.6632,0 -1.24138,0.017 -0.57817,0 -0.93528,0.034 v -0.3401 q 0.86726,-0.034 1.10534,-0.28909 0.23807,-0.27208 -0.10203,-1.13935 l -3.16297,-8.45158 0.27208,-0.22107 -2.9589,7.68635 q -0.27209,0.68021 -0.3231,1.15636 -0.051,0.45914 0.085,0.73122 0.15305,0.27208 0.49315,0.39112 0.35711,0.11904 0.88427,0.13604 v 0.3401 q -0.47614,-0.034 -1.0033,-0.034 -0.51016,-0.017 -0.95229,-0.017 -0.42513,0 -0.73123,0.017 -0.28909,0 -0.54416,0.034 v -0.3401 q 0.3401,-0.085 0.69721,-0.39112 0.35711,-0.3231 0.6462,-1.08833 l 3.99622,-10.30515 q 0.068,0 0.13604,0 0.068,0 0.13604,0 z m 2.07464,7.22721 v 0.3401 h -5.06755 l 0.17005,-0.3401 z"
               id="path1051" /><path
               d="m -186.81259,299.74257 q 1.12234,0 1.83656,0.3401 0.73122,0.3231 1.29239,0.76524 0.34011,0.25508 0.51016,0.068 0.18706,-0.20406 0.25508,-0.93529 h 0.39112 q -0.034,0.6292 -0.051,1.53047 -0.017,0.90128 -0.017,2.38073 h -0.39112 q -0.11904,-0.73122 -0.22107,-1.15635 -0.10203,-0.44214 -0.25508,-0.74823 -0.13604,-0.3061 -0.37411,-0.61219 -0.52716,-0.69721 -1.32641,-1.00331 -0.79924,-0.3231 -1.68351,-0.3231 -0.83326,0 -1.51347,0.42513 -0.6632,0.40813 -1.15635,1.19037 -0.47614,0.78224 -0.74823,1.88758 -0.25508,1.10533 -0.25508,2.48275 0,1.42844 0.28909,2.53378 0.28909,1.08833 0.79925,1.83656 0.52716,0.74823 1.22437,1.13935 0.71422,0.37411 1.53047,0.37411 0.76523,0 1.59849,-0.30609 0.83325,-0.30609 1.3094,-0.9863 0.37411,-0.49315 0.51015,-1.07133 0.15305,-0.57818 0.27209,-1.61549 h 0.39112 q 0,1.54747 0.017,2.49976 0.017,0.93529 0.051,1.58148 h -0.39112 q -0.068,-0.73122 -0.23807,-0.91828 -0.15305,-0.18705 -0.52717,0.051 -0.62919,0.44213 -1.34341,0.78224 -0.69721,0.3231 -1.80255,0.3231 -1.61549,0 -2.83987,-0.73123 -1.20736,-0.73122 -1.88757,-2.10864 -0.66321,-1.37742 -0.66321,-3.31601 0,-1.90459 0.69722,-3.33302 0.69721,-1.42844 1.90458,-2.22768 1.22437,-0.79925 2.80586,-0.79925 z"
               id="path1053" /><path
               d="m -174.51247,315.2173 v -0.3231 q 0.76524,-0.017 1.27539,-0.37411 0.52716,-0.35711 0.78224,-1.19036 0.27209,-0.81625 0.27209,-2.19368 v -9.35286 q 0,-0.62919 -0.10204,-0.91828 -0.10203,-0.30609 -0.40812,-0.40812 -0.28909,-0.11904 -0.86727,-0.13604 v -0.34011 q 0.35711,0.017 0.93529,0.034 0.57818,0.017 1.20737,0.017 0.62919,0 1.20737,-0.017 0.59518,-0.017 0.9863,-0.034 v 0.34011 q -0.57818,0.017 -0.88427,0.13604 -0.28909,0.10203 -0.39112,0.40812 -0.10203,0.28909 -0.10203,0.91828 v 6.22391 q 0,0.69721 -0.017,1.51346 -0.017,0.81625 -0.085,1.58148 -0.051,0.76524 -0.18706,1.34341 -0.28909,1.19037 -1.22437,1.97261 -0.91828,0.79924 -2.39774,0.79924 z"
               id="path1055" /><path
               d="m -156.03949,299.89562 4.14927,10.69627 q 0.25508,0.6462 0.57818,0.86726 0.3231,0.20407 0.59518,0.22107 v 0.3401 q -0.3401,-0.034 -0.83325,-0.034 -0.49315,-0.017 -0.98631,-0.017 -0.6632,0 -1.24137,0.017 -0.57818,0 -0.93529,0.034 v -0.3401 q 0.86726,-0.034 1.10534,-0.28909 0.23807,-0.27208 -0.10203,-1.13935 l -3.16297,-8.45158 0.27208,-0.22107 -2.9589,7.68635 q -0.27209,0.68021 -0.3231,1.15636 -0.051,0.45914 0.085,0.73122 0.15305,0.27208 0.49316,0.39112 0.3571,0.11904 0.88427,0.13604 v 0.3401 q -0.47615,-0.034 -1.00331,-0.034 -0.51016,-0.017 -0.95229,-0.017 -0.42513,0 -0.73123,0.017 -0.28908,0 -0.54416,0.034 v -0.3401 q 0.3401,-0.085 0.69721,-0.39112 0.35711,-0.3231 0.6462,-1.08833 l 3.99622,-10.30515 q 0.068,0 0.13604,0 0.068,0 0.13604,0 z m 2.07464,7.22721 v 0.3401 h -5.06755 l 0.17005,-0.3401 z"
               id="path1057" /><path
               d="m -125.77649,299.74257 q 1.61549,0 2.82286,0.73122 1.22438,0.73123 1.88758,2.10865 0.68021,1.36041 0.68021,3.31601 0,1.90459 -0.69721,3.33302 -0.68021,1.42844 -1.90459,2.22768 -1.22437,0.79925 -2.80585,0.79925 -1.6155,0 -2.83987,-0.73123 -1.20737,-0.73122 -1.88758,-2.10864 -0.6632,-1.37742 -0.6632,-3.31601 0,-1.90459 0.69721,-3.33302 0.69721,-1.42844 1.90458,-2.22768 1.22438,-0.79925 2.80586,-0.79925 z m -0.068,0.30609 q -1.10534,0 -1.92159,0.76524 -0.81625,0.76523 -1.27539,2.10864 -0.44213,1.34341 -0.44213,3.11195 0,1.80256 0.49315,3.14597 0.51015,1.3264 1.36041,2.05763 0.86727,0.71421 1.90459,0.71421 1.10533,0 1.92158,-0.76523 0.81625,-0.76523 1.25839,-2.10864 0.45914,-1.36042 0.45914,-3.11196 0,-1.81955 -0.51016,-3.14596 -0.49315,-1.3264 -1.34341,-2.04062 -0.85026,-0.73123 -1.90458,-0.73123 z"
               id="path1059" /><path
               d="m -101.91284,299.98064 v 0.34011 q -0.52716,0.068 -1.02031,0.3401 -0.49315,0.27208 -0.9863,0.90128 l -3.282,4.20028 0.37411,-0.83325 4.08125,5.71374 q 0.28909,0.42513 0.62919,0.66321 0.34011,0.23807 0.86727,0.37411 v 0.3401 q -0.40813,-0.034 -1.02031,-0.034 -0.59519,-0.017 -1.02032,-0.017 -0.28908,0 -0.71421,0.017 -0.40813,0 -1.03732,0.034 v -0.3401 q 0.57818,-0.034 0.73122,-0.20406 0.15305,-0.17005 -0.11903,-0.56117 l -2.48276,-3.74115 q -0.34011,-0.52716 -0.61219,-0.78224 -0.25508,-0.27208 -0.54417,-0.35711 -0.27208,-0.085 -0.69721,-0.10203 v -0.3401 q 0.71422,-0.017 1.19036,-0.27208 0.49315,-0.27209 0.81625,-0.68021 l 1.6325,-2.07464 q 0.56117,-0.71421 0.76524,-1.20737 0.20406,-0.49315 -0.017,-0.74822 -0.22107,-0.27209 -0.93528,-0.28909 v -0.34011 q 0.32309,0.017 0.6632,0.034 0.3401,0 0.6632,0.017 0.3401,0 0.62919,0 0.44214,0 0.81625,-0.017 0.37412,-0.017 0.62919,-0.034 z m -5.40765,0 v 0.34011 q -0.57818,0.017 -0.88427,0.13604 -0.28909,0.10203 -0.39112,0.40812 -0.10203,0.28909 -0.10203,0.91828 v 8.43458 q 0,0.61219 0.10203,0.91828 0.10203,0.3061 0.39112,0.40813 0.30609,0.10203 0.88427,0.13604 v 0.3401 q -0.39112,-0.034 -0.9863,-0.034 -0.57818,-0.017 -1.17336,-0.017 -0.6632,0 -1.24138,0.017 -0.57818,0 -0.93528,0.034 v -0.3401 q 0.57817,-0.034 0.86726,-0.13604 0.30609,-0.10203 0.40813,-0.40813 0.10203,-0.30609 0.10203,-0.91828 v -8.43458 q 0,-0.62919 -0.10203,-0.91828 -0.10204,-0.30609 -0.40813,-0.40812 -0.28909,-0.11904 -0.86726,-0.13604 v -0.34011 q 0.3571,0.017 0.93528,0.034 0.57818,0.017 1.24138,0.017 0.59518,0 1.17336,-0.017 0.59518,-0.017 0.9863,-0.034 z"
               id="path1061" /><path
               d="m -88.932488,299.98064 v 0.34011 q -0.578177,0.017 -0.88427,0.13604 -0.289089,0.10203 -0.39112,0.40812 -0.102031,0.28909 -0.102031,0.91828 v 8.43458 q 0,0.61219 0.102031,0.91828 0.102031,0.3061 0.39112,0.40813 0.306093,0.10203 0.88427,0.13604 v 0.3401 q -0.39112,-0.034 -0.986302,-0.034 -0.578176,-0.017 -1.173358,-0.017 -0.663203,0 -1.24138,0.017 -0.578177,0 -0.935286,0.034 v -0.3401 q 0.578177,-0.034 0.867265,-0.13604 0.306094,-0.10203 0.408125,-0.40813 0.102031,-0.30609 0.102031,-0.91828 v -8.43458 q 0,-0.62919 -0.102031,-0.91828 -0.102031,-0.30609 -0.408125,-0.40812 -0.289088,-0.11904 -0.867265,-0.13604 v -0.34011 q 0.357109,0.017 0.935286,0.034 0.578177,0.017 1.24138,0.017 0.595182,0 1.173358,-0.017 0.595182,-0.017 0.986302,-0.034 z"
               id="path1063" /><path
               d="m -71.768876,299.98064 q -0.06802,0.59519 -0.102031,1.15636 -0.017,0.56117 -0.017,0.85026 0,0.30609 0.017,0.59518 0.017,0.27208 0.03401,0.45914 h -0.391119 q -0.102032,-1.00331 -0.289089,-1.58148 -0.187057,-0.59519 -0.646197,-0.83326 -0.442136,-0.25508 -1.343411,-0.25508 h -1.411432 q -0.578177,0 -0.88427,0.10203 -0.289088,0.085 -0.39112,0.39112 -0.102031,0.28909 -0.102031,0.91828 v 8.43458 q 0,0.61219 0.102031,0.91828 0.102032,0.3061 0.39112,0.40813 0.306093,0.085 0.88427,0.085 h 1.24138 q 1.071327,0 1.615494,-0.28909 0.561171,-0.28909 0.799244,-0.93529 0.255078,-0.6632 0.374115,-1.78555 h 0.391119 q -0.05102,0.45915 -0.05102,1.22438 0,0.3231 0.017,0.93529 0.03401,0.59518 0.102031,1.24137 -0.867265,-0.034 -1.955598,-0.034 -1.088333,-0.017 -1.938593,-0.017 -0.374114,0 -0.969296,0 -0.578177,0 -1.258385,0.017 -0.680208,0 -1.377421,0.017 -0.697213,0 -1.326406,0.017 v -0.3401 q 0.578177,-0.034 0.867266,-0.13604 0.306093,-0.10203 0.408124,-0.40813 0.102032,-0.30609 0.102032,-0.91828 v -8.43458 q 0,-0.62919 -0.102032,-0.91828 -0.102031,-0.30609 -0.408124,-0.40812 -0.289089,-0.11904 -0.867266,-0.13604 v -0.34011 q 0.629193,0.017 1.326406,0.034 0.697213,0 1.377421,0.017 0.680208,0 1.258385,0 0.595182,0 0.969296,0 0.782239,0 1.768541,0 1.003307,-0.017 1.785546,-0.051 z m -2.924894,5.81578 q 0,0 0,0.17005 0,0.17006 0,0.17006 h -3.111952 q 0,0 0,-0.17006 0,-0.17005 0,-0.17005 z m 0.49315,-2.24468 q -0.06802,0.96929 -0.06802,1.47945 0.01701,0.51015 0.01701,0.93528 0,0.42513 0.017,0.93529 0.017,0.51016 0.08503,1.47945 h -0.39112 q -0.06802,-0.54416 -0.170052,-1.05432 -0.08503,-0.52716 -0.408124,-0.85026 -0.306094,-0.3401 -1.054323,-0.3401 v -0.34011 q 0.561172,0 0.85026,-0.22107 0.306094,-0.23807 0.442135,-0.59518 0.136042,-0.35711 0.187058,-0.73122 0.05102,-0.39112 0.102031,-0.69721 z"
               id="path1065" /><path
               d="m -51.969462,299.98064 v 0.34011 q -0.578177,0.017 -0.88427,0.17005 -0.289089,0.15305 -0.39112,0.49315 -0.102031,0.3401 -0.102031,0.9693 v 10.1521 q -0.102031,0 -0.204062,0 -0.08503,0 -0.187058,0 l -7.142183,-11.03637 v 8.97874 q 0,0.61219 0.102031,0.9693 0.119036,0.3401 0.442135,0.49315 0.340104,0.13604 1.003307,0.17005 v 0.3401 q -0.306094,-0.034 -0.799245,-0.034 -0.49315,-0.017 -0.935286,-0.017 -0.42513,0 -0.867265,0.017 -0.42513,0 -0.714218,0.034 v -0.3401 q 0.578177,-0.034 0.867265,-0.17005 0.306094,-0.15305 0.408125,-0.49315 0.102031,-0.35711 0.102031,-0.9693 v -8.26453 q 0,-0.62919 -0.102031,-0.91828 -0.102031,-0.30609 -0.408125,-0.40812 -0.289088,-0.11904 -0.867265,-0.13604 v -0.34011 q 0.289088,0.017 0.714218,0.034 0.442135,0.017 0.867265,0.017 0.374115,0 0.714219,-0.017 0.340104,-0.017 0.612187,-0.034 l 6.002835,9.25083 v -7.27822 q 0,-0.6292 -0.119036,-0.9693 -0.102031,-0.3401 -0.442135,-0.49315 -0.323099,-0.15305 -0.986302,-0.17005 v -0.34011 q 0.306094,0.017 0.799245,0.034 0.510156,0.017 0.935286,0.017 0.442135,0 0.867265,-0.017 0.442135,-0.017 0.714218,-0.034 z"
               id="path1067" /></g></g></g></g></g></svg>
